<svg width="149" height="37" xmlns="http://www.w3.org/2000/svg" fill="none">

 <g>
  <title>background</title>
  <rect fill="none" id="canvas_background" height="833" width="1534" y="-1" x="-1"/>
 </g>
 <g>
  <title>Layer 1</title>
  <path id="svg_2" fill="#F53838" d="m31.1473,13.6477l-0.0218,-0.0217c-0.0017,-0.0013 -0.0031,-0.0029 -0.004,-0.0048l-13.6209,-13.6212l-13.62077,13.6209c-0.00157,0.0016 -0.00403,0.0047 -0.00403,0.0047l-0.02247,0.0218c-2.0828,2.0945 -3.40574,4.8251 -3.75851,7.7578c-0.35277,2.9327 0.28488,5.8992 1.81157,8.4279c1.5267,2.5288 3.85483,4.4746 6.6143,5.5281c2.75951,1.0535 5.79191,1.1545 8.61531,0.2865c0.2375,-0.0726 0.4915,-0.0726 0.7291,0c2.8231,0.8676 5.8554,0.7667 8.6147,-0.287c2.7593,-1.0537 5.0872,-2.9994 6.6138,-5.5279c1.5266,-2.5286 2.1643,-5.4949 1.8117,-8.4274c-0.3527,-2.9326 -1.6754,-5.6632 -3.758,-7.7577zm-22.4241,8.9821c-0.06631,0.0663 -0.1189,0.1451 -0.15476,0.2317c-0.03587,0.0865 -0.05434,0.1793 -0.05432,0.2731c0.02423,2.404 0.70364,4.7558 1.96508,6.8025c0.0287,0.0464 0.0419,0.1008 0.0378,0.1551c-0.004,0.0543 -0.0252,0.106 -0.0604,0.1477c-0.0353,0.0417 -0.0828,0.0711 -0.1357,0.0841c-0.053,0.013 -0.1087,0.009 -0.1593,-0.0116c-0.94828,-0.3989 -1.80978,-0.9788 -2.53629,-1.7071c-1.48885,-1.4891 -2.32585,-3.5083 -2.32721,-5.6141c-0.00135,-2.1057 0.83307,-4.126 2.32002,-5.6169l9.88248,-9.88157l9.882,9.88157c1.4872,1.4907 2.3219,3.511 2.3204,5.6169c-0.0012,2.1058 -0.8383,4.125 -2.3273,5.6141c-0.7265,0.7283 -1.588,1.3082 -2.5361,1.7071c-0.0507,0.0206 -0.1064,0.0246 -0.1594,0.0116c-0.0529,-0.013 -0.1004,-0.0426 -0.1357,-0.0841c-0.0352,-0.0417 -0.0565,-0.0934 -0.0605,-0.1479c-0.0041,-0.0543 0.0091,-0.1087 0.0378,-0.1551c1.2617,-2.0465 1.9415,-4.3983 1.9661,-6.8023c0,-0.0938 -0.0187,-0.1866 -0.0547,-0.2733c-0.0361,-0.0867 -0.0888,-0.1653 -0.1553,-0.2317l-4.6742,-4.9579c-0.0466,-0.0388 -0.1052,-0.0601 -0.1659,-0.0601c-0.0605,0 -0.1192,0.0213 -0.1657,0.0601c-0.0466,0.0387 -0.0779,0.0927 -0.0888,0.1523c-0.0109,0.0597 -0.0005,0.121 0.0294,0.1738c1.8154,3.2852 0.2543,8.0039 -2.349,10.6075l-0.0137,0.0138c-0.3593,0.3554 -0.8444,0.5547 -1.3498,0.5545c-0.5054,-0.0002 -0.9904,-0.1998 -1.3494,-0.5554l-0.0126,-0.0129c-2.6043,-2.6036 -4.1646,-7.3218 -2.3489,-10.6068c0.0299,-0.0528 0.0403,-0.1141 0.0294,-0.1738c-0.0108,-0.0596 -0.0423,-0.1136 -0.0888,-0.1523c-0.0465,-0.0388 -0.1052,-0.0601 -0.1657,-0.0601c-0.0606,0 -0.1193,0.0213 -0.1658,0.0601l-4.6752,4.9574z"/>
  <text xml:space="preserve" text-anchor="start" font-family="Helvetica, Arial, sans-serif" font-size="12" id="svg_3" y="16.492733" x="37.233788" fill-opacity="null" stroke-opacity="null" stroke-width="0" stroke="null" fill="#000000">RDPStudio</text>
  <text font-weight="bold" xml:space="preserve" text-anchor="start" font-family="Helvetica, Arial, sans-serif" font-size="12" id="svg_4" y="31.292551" x="80.566589" fill-opacity="null" stroke-opacity="null" stroke-width="0" stroke="null" fill="#000000">Free Nodes</text>
 </g>
</svg>